<?xml version="1.0" encoding="UTF-8"?>
<svg id="Layer_1" data-name="Layer 1" xmlns="http://www.w3.org/2000/svg" viewBox="0 0 196.66 337.14">
  <defs>
    <style>
      .cls-1 {
        fill: #0a2740;
      }
    </style>
  </defs>
  <circle class="cls-1" cx="153.21" cy="64.96" r="19.57"/>
  <path class="cls-1" d="M89.94,190.67v54.43c-10.46,6.71-14.68,9.4-27.99,17.79-6.24,3.94-14.37-.53-14.37-7.91v-6.14c0-10.13.02-20.26.02-30.4v-.94c24.55-15.49,31.29-19.75,42.34-26.84Z"/>
  <path class="cls-1" d="M89.92,22.88c.01.31.02.61.02.92,0,2.94,0,5.89,0,8.83v89.01c0,1.98,0,3.96,0,5.94,0,0,0,.04,0,.04-13.51,8.66-16.61,10.64-42.36,26.87v-10.06c0-13.06,0-26.13,0-39.19,0-6.95,0-13.88,0-20.83,0-6.94,0-13.87,0-20.82,0-4.83,0-9.65,0-14.48v-4.76c0-4.2-.16-9.32-3.67-12.28-3.71-3.14-8.48-2.04-12.31.24-2.39,1.43-4.53,3.25-6.57,5.15.17-.15.24-.65.32-.87.13-.34.27-.68.4-1.01.26-.65.53-1.29.8-1.93,5.37-12.31,16.02-24.43,28.12-30.51,7.71-3.87,17.58-4.65,24.63.32,5.95,4.19,10.25,12.05,10.57,19.4Z"/>
  <path class="cls-1" d="M47.61,63.97c0,6.95,0,13.88,0,20.82v-20.8s0,0,0-.02Z"/>
  <path class="cls-1" d="M195.46,229.98c-1.32,8.31-3.94,16.25-8.74,23.22-2.03,2.94-4.38,5.5-6.94,7.81-4.97,4.48-10.74,8.05-16.52,11.66-3.88,2.43-7.77,4.86-11.65,7.3-1.29.8,0,0-10.73,6.7-11.52,7.22-23.07,14.43-34.6,21.66-4,2.49-8,4.99-11.99,7.5-5.76,3.6-11.52,7.21-17.28,10.81-8.43,4.87-17.46,10-27.39,10.48-8.98.43-17.91-3.98-23.52-10.91-6.23-7.68-9.17-19.05-7.22-28.85h0c.08-.42.17-.83.27-1.23.3-1.21.67-2.4,1.11-3.55.59-1.52,1.31-2.98,2.15-4.36-.11.34-.13.49-.24,1.12-.1.61-.05,1.24,0,1.86.24,2.65,1.76,5.05,3.67,6.82.9.84,2.03,1.78,3.2,2.22,1.35.51,2.98.46,4.38.19.57-.12,1.13-.28,1.68-.48,2.09-.78,3.47-.99,10.33-5.23,3.14-1.94,6.27-3.92,9.39-5.87,3.9-2.44,7.79-4.88,11.69-7.31,4.35-2.72,8.7-5.44,13.05-8.17,4.51-2.82,9.02-5.64,13.53-8.46,4.36-2.73,8.72-5.46,13.09-8.19,3.92-2.45,7.84-4.91,11.76-7.36,3.18-1.99,6.34-3.97,9.52-5.95,2.12-1.33,4.25-2.67,6.37-3.99.78-.49,1.56-.97,2.33-1.46,0,0,.02,0,.03-.02,0,0,2-1.25,2.01-1.25l20.54-12.86,12.71-7.95c2.35-1.48,3.28-2.11,4.14-2.81,2.23-1.82,4.52-6.87,2.11-11.6-.38-.75-.81-1.4-1.28-1.95-1.98-2.41-4.63-3.06-7.42-2.7-1.81.23-3.53.91-5.07,1.88l-7.42,4.64-28.24,17.66-1.13.71c-.73.47-1.47.93-2.21,1.4-2,1.27-4.01,2.52-6.03,3.77-2.78,1.72-5.56,3.43-8.33,5.14l-.56.35c-2.96,1.83-5.93,3.67-8.87,5.54l-.08.07-2.85,1.78v-53.4c4.73-3,7.52-4.92,10.77-7.15,2.15-1.48,4.5-3.09,7.76-5.24,3.79-2.37,7.59-4.76,11.38-7.14l13.71-8.57c7.54-4.11,8.67-4.85,13.16-6.69,12.69-5.2,27.49.16,35.02,11.52,1.66,2.5,2.8,4.97,3.59,7.5,1.45,4.57,1.79,9.3,2.15,14.6.32,4.79.65,11.12.8,17.75h0c.21,9.64.03,19.92-1.12,27.1Z"/>
  <path class="cls-1" d="M4.14,163.55c-.05.18-.09.3-.13.48v-.25c.03-.08.08-.15.13-.23Z"/>
  <path class="cls-1" d="M4.48,168.9c-.13-.29-.23-.56-.31-.84,0,0,0-.15,0-.15.09.33.19.66.32.98Z"/>
  <path class="cls-1" d="M187.36,148.99c-4.05-3.51-6.18-5.66-11.24-7.25-10.74-3.36-22.15-.17-31.68,4.97-1.33.72-2.65,1.47-3.95,2.25-10.04,5.98-19.74,12.49-29.4,19.06-8.42,5.72-16.81,11.47-25.38,16.94-2.93,1.87-5.85,3.75-8.77,5.63-4.38,2.8-8.76,5.59-13.21,8.26l-4.99,3.12c-8.44,4.87-17.46,10.01-27.39,10.48-8.98.42-17.91-3.99-23.52-10.91-.48-.6-.95-1.23-1.4-1.87-.15-.21-.29-.43-.44-.65-.25-.37-.49-.76-.72-1.14-4.65-7.74-6.5-17.8-4.39-26.42.3-1.21.67-2.4,1.11-3.55.56-1.43,1.23-2.82,2.02-4.13v.25c-.02.15-.05.34-.11.64-.1.62-.05,1.24,0,1.86.04.47.13.93.25,1.39,0,0,0,.14,0,.15.09.27.19.54.31.84,0,0,0,.02,0,.03.66,1.53,1.9,3.31,4.14,5.28.19.16.36.31.55.46.02.03.04.04.06.05,5.41,4.35,10.73,3.42,16.11,1,2.86-1.28,5.73-2.98,8.65-4.53,2.58-1.38,5.09-2.92,7.47-4.34,12.59-7.56,25.01-15.49,37.36-23.57,1.21-.79,2.42-1.58,3.63-2.38,9.43-6.2,18.93-12.3,28.41-18.44,4.84-3.14,9.64-6.35,14.52-9.43,4.31-2.72,8.55-5.77,13.47-7.28,4.68-1.44,9.53-2.09,14.42-1.65,5.28.48,10.43,2.16,14.95,4.93,6.61,4.05,11.23,10.29,14.05,17.44,2.65,6.71,5.05,15.3,5.07,22.54Z"/>
</svg>